HIERARCHY
ROOT Hips
{
	OFFSET 0.000000 0.000000 0.000000 
	CHANNELS 6 Xposition Yposition Zposition Yrotation Zrotation Xrotation 
	JOINT Lumbar
	{
		OFFSET 0.000000 0.000000 0.000000 
		CHANNELS 3 Zrotation Xrotation Yrotation
		JOINT Neck
		{
			OFFSET 0.000000 0.445665 0.000000 
			CHANNELS 3 Zrotation Xrotation Yrotation
			End Site
			{
				OFFSET 0.000000 0.227535 0.000000 
			}
		}
		JOINT RightShoulder
		{
			OFFSET 0.019635 0.377685 0.194865 
			CHANNELS 3 Zrotation Xrotation Yrotation
			JOINT RightElbow
			{
				OFFSET 0.000000 -0.243375 0.000000 
				CHANNELS 2 Zrotation Yrotation
				JOINT RightWrist
				{
					OFFSET 0.000000 -0.264825 0.000000 
					CHANNELS 2 Zrotation Xrotation
					End Site
					{
						OFFSET 0.006600 -0.176220 0.000990 
					}
				}
			}
		}
		JOINT LeftShoulder
		{
			OFFSET 0.019635 0.377685 -0.194865 
			CHANNELS 3 Zrotation Xrotation Yrotation
			JOINT LeftElbow
			{
				OFFSET 0.000000 -0.243375 0.000000 
				CHANNELS 2 Zrotation Yrotation
				JOINT LeftWrist
				{
					OFFSET 0.000000 -0.264825 0.000000 
					CHANNELS 2 Zrotation Xrotation
					End Site
					{
						OFFSET 0.006600 -0.176220 -0.000990 
					}
				}
			}
		}
	}
	JOINT RightHip
	{
		OFFSET 0.052140 -0.069960 0.075570 
		CHANNELS 3 Zrotation Xrotation Yrotation
		JOINT RightKnee
		{
			OFFSET 0.000000 -0.402270 0.000000 
			CHANNELS 1 Zrotation
			JOINT RightAnkle
			{
				OFFSET 0.000000 -0.404085 0.000000 
				CHANNELS 3 Zrotation Xrotation Yrotation
				End Site
				{
					OFFSET 0.204105 -0.089430 0.008415 
				}
			}
		}
	}
	JOINT LeftHip
	{
		OFFSET 0.052140 -0.069960 -0.075570 
		CHANNELS 3 Zrotation Xrotation Yrotation
		JOINT LeftKnee
		{
			OFFSET 0.000000 -0.402270 0.000000 
			CHANNELS 1 Zrotation
			JOINT LeftAnkle
			{
				OFFSET 0.000000 -0.404085 0.000000 
				CHANNELS 3 Zrotation Xrotation Yrotation
				End Site
				{
					OFFSET 0.204105 -0.089430 -0.008415 
				}
			}
		}
	}
}
MOTION
Frames: 30
Frame Time: 0.02
4e-05 0.0005 -0.00061 32.74426 -17.4231 -3.68762 43.38772 -0.86817 -9.02274 -14.03922 5.53429 -1.22947 -19.94355 -4.5324 -10.57473 23.94142 68.68345 0.96571 -2.74848 -26.81444 3.10342 10.94199 31.38998 -166.29839 36.04301 -12.68573 26.57369 -1.42202 -0.71379 -19.95646 -6.44867 -3.69118 -4.01594 32.49244 2.32702 3.94559 -23.91392 -6.46196 1.66083 3.04385
-0.00041 0.00037 3e-05 32.74062 -17.41522 -3.68298 43.3749 -0.85053 -9.04938 -13.93375 5.52792 -1.23022 -19.83639 -4.37151 -12.18083 23.74216 73.83008 2.26506 -1.86173 -26.81505 3.46652 9.91829 31.38738 -160.29962 34.06373 -11.63451 26.60587 -1.58904 -1.74322 -19.96703 -6.4049 -3.59224 -3.96567 32.53664 2.42879 4.36831 -23.924 -6.47572 1.61982 3.02448
-0.00087 0.00025 0.00067 32.73693 -17.4073 -3.67835 43.36209 -0.83292 -9.07585 -13.82847 5.52159 -1.23096 -19.72965 -4.21138 -13.78124 23.54328 78.96104 3.56047 -0.97768 -26.81551 3.82838 8.8981 31.38459 -154.32494 32.09257 -10.5874 26.63795 -1.75551 -2.76943 -19.97759 -6.36127 -3.49361 -3.91555 32.58068 2.53028 4.78969 -23.93405 -6.48944 1.57894 3.00517
-0.00132 0.00012 0.00131 32.73329 -17.39944 -3.67372 43.34931 -0.81533 -9.10239 -13.7233 5.51524 -1.2317 -19.62284 -4.05103 -15.38227 23.34459 84.09186 4.85582 -0.09366 -26.81609 4.19033 7.87766 31.38195 -148.34596 30.11986 -9.53962 26.67003 -1.922 -3.79568 -19.98814 -6.31764 -3.39499 -3.86543 32.62474 2.63175 5.21111 -23.94409 -6.50316 1.53806 2.98586
-0.00178 -1e-05 0.00196 32.72971 -17.39162 -3.66908 43.33653 -0.79771 -9.12912 -13.61797 5.50884 -1.23244 -19.51555 -3.88983 -16.98929 23.14561 89.23826 6.15508 0.79307 -26.81688 4.55358 6.85345 31.37962 -142.33971 28.13788 -8.48725 26.70219 -2.08906 -4.82518 -19.99869 -6.27386 -3.29605 -3.81516 32.66895 2.73348 5.63385 -23.95416 -6.51692 1.49704 2.96648
-0.00223 -0.00013 0.0026 32.72577 -17.38349 -3.66448 43.32366 -0.7801 -9.15505 -13.51281 5.50266 -1.23319 -19.40995 -3.73194 -18.57571 22.94695 94.33645 7.44232 1.67142 -26.81666 4.91254 5.8417 31.37586 -136.43103 26.18936 -7.45114 26.73413 -2.25428 -5.84444 -20.00927 -6.23053 -3.19807 -3.76538 32.71265 2.83444 6.05237 -23.96416 -6.53056 1.45647 2.94732
-0.00269 -0.00026 0.00324 32.72259 -17.37601 -3.65981 43.31099 -0.76252 -9.18257 -13.40742 5.49605 -1.23393 -19.30115 -3.5676 -20.20171 22.74789 99.52581 8.75228 2.56561 -26.81844 5.27963 4.8064 31.37491 -130.3359 24.17684 -6.38396 26.76648 -2.42301 -6.88309 -20.01978 -6.18637 -3.09828 -3.71466 32.75731 2.93685 6.47894 -23.97428 -6.54443 1.41503 2.92773
-0.00314 -0.00039 0.00388 32.71868 -17.36793 -3.6552 43.29813 -0.74489 -9.20861 -13.30227 5.48984 -1.23467 -19.19517 -3.40913 -21.79141 22.54912 104.63147 10.04134 3.44528 -26.81842 5.63943 3.79204 31.3715 -124.40658 22.22117 -5.34449 26.79845 -2.58851 -7.90398 -20.03036 -6.14296 -3.00015 -3.6648 32.80111 3.03792 6.89802 -23.98429 -6.55808 1.3744 2.90855
-0.00359 -0.00051 0.00452 32.71398 -17.35911 -3.65065 43.28504 -0.72726 -9.2329 -13.19724 5.48411 -1.23543 -19.09311 -3.25815 -23.33651 22.35089 109.63553 11.30522 4.30725 -26.81602 5.9896 2.806 31.36451 -118.70278 20.34314 -4.34237 26.82994 -2.75007 -8.90312 -20.04099 -6.10048 -2.90404 -3.61599 32.84381 3.13739 7.30839 -23.99418 -6.57148 1.33471 2.88983
-0.00406 -0.00065 0.00517 32.7141 -17.35449 -3.6457 43.27328 -0.70979 -9.2674 -13.09101 5.47556 -1.23613 -18.96991 -3.06499 -25.13755 22.15013 115.22645 12.71514 5.27122 -26.82677 6.39306 1.66519 31.37637 -111.76999 18.04289 -3.13581 26.86417 -2.93436 -10.02732 -20.05123 -6.0527 -2.79628 -3.56114 32.89269 3.24622 7.77023 -24.00481 -6.58638 1.28949 2.86835
-0.0045 -0.00076 0.00581 32.7039 -17.34106 -3.64165 43.25871 -0.69192 -9.2803 -12.98763 5.47301 -1.23694 -18.8904 -2.96024 -26.399 21.95437 119.57734 13.81609 6.01982 -26.81015 6.68543 0.84575 31.34964 -107.38619 16.61774 -2.35386 26.89265 -3.07066 -10.88765 -20.06234 -6.01608 -2.71312 -3.51903 32.9286 3.33518 8.12258 -24.01387 -6.59809 1.25601 2.85274
-0.00483 -0.00082 0.00644 32.66656 -17.30287 -3.63964 43.23638 -0.67355 -9.23394 -12.8895 5.48648 -1.23801 -18.94003 -3.10521 -26.16152 21.77578 120.50819 14.06819 6.17312 -26.7147 6.6583 0.96122 31.20635 -110.44357 17.75235 -2.80657 26.90486 -3.07434 -11.01678 -20.07556 -6.01051 -2.69802 -3.51217 32.928 3.37008 8.17909 -24.01855 -6.60101 1.25449 2.85313
-0.00514 -0.00085 0.00708 32.61882 -17.25593 -3.63859 43.21128 -0.6547 -9.16599 -12.79478 5.50586 -1.23917 -19.03211 -3.33754 -25.3853 21.60212 120.19695 14.01034 6.11089 -26.59256 6.52196 1.39107 31.02635 -115.98903 19.74016 -3.67463 26.91136 -3.03002 -10.88214 -20.08973 -6.01608 -2.70754 -3.51805 32.9145 3.38493 8.12494 -24.02167 -6.60073 1.26478 2.85943
-0.00546 -0.0009 0.00771 32.57481 -17.21341 -3.63742 43.18747 -0.63565 -9.10774 -12.70003 5.52305 -1.24029 -19.0984 -3.52542 -24.86791 21.42326 120.46562 14.09485 6.1502 -26.48492 6.44567 1.64048 30.87008 -120.08992 21.22922 -4.30491 26.92088 -3.00827 -10.873 -20.10358 -6.01626 -2.7054 -3.51787 32.90756 3.40865 8.11819 -24.02555 -6.60192 1.26984 2.86313
-0.00577 -0.00094 0.00835 32.53421 -17.16909 -3.63503 43.16343 -0.61824 -9.04943 -12.59847 5.53896 -1.24142 -19.19108 -3.73402 -24.29159 21.25466 120.66726 14.17199 6.17423 -26.36679 6.32673 2.0429 30.68378 -125.47431 23.17288 -5.1354 26.9288 -2.98319 -10.84005 -20.11682 -6.0178 -2.70521 -3.51879 32.89784 3.43338 8.12275 -24.02922 -6.60298 1.2744 2.86655
-0.00609 -0.00098 0.00899 32.485 -17.12633 -3.6353 43.13934 -0.59746 -8.98675 -12.51241 5.55796 -1.24256 -19.24028 -3.91957 -23.70874 21.06864 120.71329 14.19151 6.1786 -26.26475 6.2688 2.20897 30.55159 -128.83342 24.39166 -5.65683 26.93841 -2.95372 -10.79357 -20.13174 -6.01919 -2.70692 -3.52051 32.89063 3.45121 8.07837 -24.03295 -6.6036 1.28272 2.87188
-0.00642 -0.00104 0.00963 32.40717 -17.091 -3.64352 43.11466 -0.56612 -8.91191 -12.46433 5.59191 -1.24372 -19.1471 -4.02454 -23.2568 20.80963 120.64496 14.12445 6.18572 -26.20904 6.4242 1.57461 30.57617 -125.4627 23.22126 -5.13712 26.95657 -2.9235 -10.78057 -20.14954 -6.01699 -2.70672 -3.52068 32.89555 3.45532 7.91887 -24.0374 -6.60345 1.2993 2.88161
-0.00675 -0.0011 0.01028 32.32288 -17.05738 -3.65425 43.09033 -0.53168 -8.83427 -12.4327 5.62699 -1.2449 -19.01124 -4.10228 -22.81506 20.53746 120.46118 14.01078 6.17979 -26.17136 6.64209 0.70291 30.65706 -120.05305 21.32088 -4.30581 26.97614 -2.8906 -10.7621 -20.16927 -6.01435 -2.70783 -3.52134 32.90316 3.45303 7.71513 -24.04198 -6.60305 1.31906 2.89296
-0.00708 -0.00116 0.01092 32.24583 -17.02226 -3.66326 43.0664 -0.49952 -8.76164 -12.39584 5.6568 -1.24608 -18.90234 -4.18976 -22.3561 20.28668 120.32316 13.92075 6.17707 -26.12844 6.81866 -0.01154 30.71293 -115.9388 19.87685 -3.67627 26.99349 -2.85916 -10.74194 -20.1892 -6.01214 -2.70903 -3.52216 32.90812 3.45349 7.53656 -24.04639 -6.60295 1.3369 2.90323
-0.00742 -0.00121 0.0116 32.14837 -16.98972 -3.67467 43.03955 -0.46355 -8.67316 -12.34866 5.70816 -1.24722 -18.76171 -4.29209 -21.92654 19.97047 120.17007 13.80962 6.17825 -26.07197 7.04323 -0.91631 30.76407 -110.40665 17.95341 -2.81622 27.01743 -2.82496 -10.72969 -20.20477 -6.00919 -2.70802 -3.52173 32.91832 3.45424 7.33348 -24.05113 -6.60186 1.35732 2.91521
-0.00773 -0.00128 0.0122 32.0944 -16.95254 -3.68178 43.01949 -0.43492 -8.61647 -12.32806 5.71324 -1.24844 -18.6781 -4.35503 -21.45134 19.78804 120.03716 13.73529 6.1711 -26.04852 7.18752 -1.49418 30.84024 -107.24571 16.82287 -2.34562 27.02791 -2.79655 -10.70374 -20.22966 -6.00772 -2.71185 -3.52394 32.91882 3.45275 7.17144 -24.05532 -6.60291 1.37276 2.92386
-0.00799 -0.00141 0.01267 32.14269 -16.90043 -3.67534 43.01316 -0.42615 -8.65467 -12.36643 5.60337 -1.24989 -18.7485 -4.32269 -20.79764 19.97197 119.9939 13.77673 6.14449 -26.11034 7.06479 -1.03109 30.95974 -111.69833 18.24383 -3.12412 27.00193 -2.78465 -10.63725 -20.28178 -6.00893 -2.72659 -3.53243 32.88847 3.45009 7.14273 -24.05731 -6.60939 1.37511 2.92342
-0.00823 -0.00155 0.01306 32.23919 -16.844 -3.66473 43.01456 -0.42501 -8.72342 -12.43302 5.44419 -1.25141 -18.88036 -4.24995 -20.10975 20.29183 119.98001 13.85791 6.11093 -26.20495 6.86448 -0.24454 31.10441 -118.50115 20.45343 -4.28699 26.96213 -2.77898 -10.55935 -20.34287 -6.01188 -2.74645 -3.54365 32.84909 3.44491 7.15609 -24.05896 -6.61822 1.37191 2.91941
-0.00847 -0.00168 0.01347 32.3257 -16.79064 -3.65664 43.01573 -0.42128 -8.77462 -12.49332 5.29921 -1.2529 -18.9927 -4.19074 -19.47293 20.55391 119.9554 13.92061 6.08145 -26.28597 6.72096 0.3361 31.24625 -123.82851 22.17224 -5.20537 26.92804 -2.77077 -10.49055 -20.39854 -6.01496 -2.76524 -3.55412 32.81597 3.4387 7.14422 -24.06108 -6.62631 1.37032 2.91672
-0.00872 -0.00182 0.01395 32.35945 -16.73242 -3.64578 43.00322 -0.41414 -8.84296 -12.52609 5.18983 -1.25438 -19.06715 -4.15092 -18.68591 20.79989 119.91541 13.98307 6.04766 -26.36303 6.49189 1.14565 31.35573 -130.75752 24.40848 -6.39977 26.89659 -2.76108 -10.40444 -20.45986 -6.0141 -2.77877 -3.56251 32.7733 3.44132 7.15491 -24.06151 -6.6328 1.37302 2.91553
-0.00896 -0.00194 0.01427 32.5174 -16.68355 -3.63995 43.02085 -0.41545 -8.88065 -12.62335 4.99345 -1.25591 -19.23683 -4.06158 -18.20383 21.11034 119.91545 14.05634 6.02115 -26.45469 6.41769 1.57296 31.53528 -134.99608 25.78447 -7.1247 26.85613 -2.75612 -10.35229 -20.51165 -6.02193 -2.80447 -3.57592 32.74901 3.42519 7.13121 -24.06586 -6.64343 1.36504 2.91016
-0.00915 -0.00199 0.01416 32.98371 -16.6592 -3.64697 43.12065 -0.44218 -8.84537 -12.88584 4.57853 -1.25752 -19.64383 -3.84508 -18.56893 21.57735 120.01978 14.14643 6.01776 -26.58873 6.82621 0.73738 31.92466 -130.70153 24.41255 -6.37143 26.79616 -2.7615 -10.39312 -20.53404 -6.05269 -2.86239 -3.60207 32.77318 3.35663 6.98415 -24.07866 -6.66283 1.33222 2.89573
-0.00935 -0.00203 0.0139 33.57819 -16.64488 -3.65986 43.24982 -0.47623 -8.77455 -13.21308 4.0761 -1.2592 -20.14612 -3.58073 -19.24132 22.10146 120.1591 14.24536 6.02105 -26.73419 7.3869 -0.47102 32.37958 -123.72069 22.18263 -5.14935 26.72738 -2.77145 -10.46941 -20.54682 -6.09228 -2.93243 -3.63327 32.81786 3.26962 6.80386 -24.09712 -6.68665 1.28827 2.87694
-0.00956 -0.00208 0.0137 34.12829 -16.62743 -3.67104 43.36566 -0.50459 -8.70757 -13.51473 3.60723 -1.26085 -20.61273 -3.33811 -19.77695 22.59296 120.28866 14.34468 6.02141 -26.86799 7.85308 -1.42082 32.78898 -118.33448 20.46955 -4.20229 26.66112 -2.78035 -10.53166 -20.56437 -6.1282 -2.99699 -3.66243 32.85493 3.19187 6.65184 -24.11299 -6.70988 1.24714 2.85904
-0.00969 -0.00209 0.01351 34.61928 -16.6036 -3.67688 43.48391 -0.54394 -8.69397 -13.80196 3.16227 -1.26241 -21.05181 -3.09249 -20.30497 23.12123 120.41306 14.43314 6.02401 -27.03101 8.42083 -2.72737 33.26422 -111.47655 18.25648 -3.01093 26.6 -2.78597 -10.58407 -20.57995 -6.1626 -3.06152 -3.69056 32.88078 3.1101 6.44884 -24.12376 -6.72742 1.21499 2.8455
